<svg width="32" height="32" viewBox="0 0 32 32" fill="none" xmlns="http://www.w3.org/2000/svg">
<path d="M10.5653 19.4633C9.00975 18.3226 7.85496 16.719 7.26622 14.882C6.67748 13.0451 6.68496 11.069 7.28761 9.23655C7.89026 7.40412 9.05717 5.80931 10.6213 4.68041C12.1855 3.5515 14.0667 2.94636 15.9956 2.95161C17.9246 2.95687 19.8025 3.57224 21.3605 4.70965C22.9184 5.84707 24.0766 7.4482 24.6693 9.28389C25.262 11.1196 25.2587 13.0957 24.6599 14.9294C24.0612 16.7631 22.8977 18.3604 21.336 19.4927" stroke="#444444" stroke-linecap="round" stroke-linejoin="round"/>
<path d="M21.336 19.4933V23.908L10.5447 23.896L10.5713 19.4553M13.1493 18.1447C11.8324 17.5001 10.7725 16.4287 10.1422 15.1049C9.51177 13.7812 9.34805 12.283 9.67763 10.8544C10.0072 9.42574 10.8107 8.15071 11.9573 7.2369C13.1038 6.32309 14.526 5.8243 15.9921 5.82174C17.4583 5.81918 18.8822 6.313 20.0319 7.22281C21.1817 8.13261 21.9896 9.40482 22.3242 10.8323C22.6588 12.2598 22.5003 13.7585 21.8745 15.0845C21.2488 16.4104 20.1926 17.4855 18.878 18.1347" stroke="#444444" stroke-linecap="round" stroke-linejoin="round"/>
<path d="M18.8774 18.1347L18.878 21.4413H13.196L13.2027 18.1853" stroke="#444444" stroke-linecap="round" stroke-linejoin="round"/>
<path d="M19.8134 26.712H12.1874C12.0957 26.712 12.0214 26.7863 12.0214 26.878V28.834C12.0214 28.9257 12.0957 29 12.1874 29H19.8134C19.905 29 19.9794 28.9257 19.9794 28.834V26.878C19.9794 26.7863 19.905 26.712 19.8134 26.712Z" stroke="#444444" stroke-linecap="round" stroke-linejoin="round"/>
</svg>
